<?xml version="1.0" encoding="UTF-8" standalone="no"?>
<svg
   viewBox="0 0 126.98413 126.98413"
   version="1.1"
   id="svg15"
   sodipodi:docname="elpa.svg"
   xml:space="preserve"
   inkscape:version="1.4 (e7c3feb100, 2024-10-09)"
   width="16"
   height="16"
   xmlns:inkscape="http://www.inkscape.org/namespaces/inkscape"
   xmlns:sodipodi="http://sodipodi.sourceforge.net/DTD/sodipodi-0.dtd"
   xmlns:xlink="http://www.w3.org/1999/xlink"
   xmlns="http://www.w3.org/2000/svg"
   xmlns:svg="http://www.w3.org/2000/svg"><sodipodi:namedview
     id="namedview15"
     pagecolor="#505050"
     bordercolor="#ffffff"
     borderopacity="1"
     inkscape:showpageshadow="0"
     inkscape:pageopacity="0"
     inkscape:pagecheckerboard="1"
     inkscape:deskcolor="#505050"
     inkscape:zoom="31.289475"
     inkscape:cx="11.457527"
     inkscape:cy="5.7846928"
     inkscape:window-width="1920"
     inkscape:window-height="919"
     inkscape:window-x="0"
     inkscape:window-y="0"
     inkscape:window-maximized="1"
     inkscape:current-layer="svg15" /><defs
     id="defs2"><inkscape:path-effect
       effect="perspective-envelope"
       up_left_point="98.717368,91.305595"
       up_right_point="106.52828,87.788974"
       down_left_point="98.690893,96.103429"
       down_right_point="106.4027,91.51207"
       id="path-effect24"
       is_visible="true"
       lpeversion="1"
       deform_type="perspective"
       horizontal_mirror="false"
       vertical_mirror="false"
       overflow_perspective="false" /><linearGradient
       id="linearGradient23"
       inkscape:collect="always"><stop
         style="stop-color:#6f4dc3;stop-opacity:1;"
         offset="0"
         id="stop23" /><stop
         style="stop-color:#53359e;stop-opacity:1;"
         offset="1"
         id="stop24" /></linearGradient><inkscape:path-effect
       effect="perspective-envelope"
       up_left_point="14.565835,48.444372"
       up_right_point="48.754949,60.738157"
       down_left_point="13.300298,90.144513"
       down_right_point="47.670203,105.87333"
       id="path-effect21"
       is_visible="true"
       lpeversion="1"
       deform_type="perspective"
       horizontal_mirror="false"
       vertical_mirror="false"
       overflow_perspective="false" /><linearGradient
       id="linearGradient20"
       inkscape:collect="always"><stop
         style="stop-color:#411f5d;stop-opacity:1;"
         offset="0"
         id="stop20" /><stop
         style="stop-color:#5b2a85;stop-opacity:1;"
         offset="1"
         id="stop21" /></linearGradient><linearGradient
       id="linearGradient15"
       inkscape:collect="always"><stop
         style="stop-color:#8381c5;stop-opacity:1;"
         offset="0"
         id="stop15" /><stop
         style="stop-color:#7e55b3;stop-opacity:0.99607843;"
         offset="0.5"
         id="stop17" /><stop
         style="stop-color:#bc02f7;stop-opacity:0.99215686;"
         offset="1"
         id="stop16" /></linearGradient><linearGradient
       id="SVGID_1_"
       gradientTransform="scale(-1,1)"
       gradientUnits="userSpaceOnUse"
       x1="-96.680801"
       x2="-110.7736"
       y1="-108.3677"
       y2="-79.065697"><stop
         offset="0.3098"
         stop-color="#FCE8B2"
         id="stop1" /><stop
         offset="0.3987"
         stop-color="#FFCC80"
         id="stop2" /></linearGradient><linearGradient
       id="linearGradient4292"><stop
         id="stop4294"
         offset="0"
         style="stop-color:#411f5d;stop-opacity:1" /><stop
         id="stop4296"
         offset="1"
         style="stop-color:#5b2a85;stop-opacity:1" /></linearGradient><linearGradient
       id="linearGradient4284"><stop
         offset="0"
         style="stop-color:#8381c5;stop-opacity:1"
         id="stop4286" /><stop
         id="stop4290"
         style="stop-color:#7e55b3;stop-opacity:0.99607843"
         offset="0.56639391" /><stop
         offset="1"
         style="stop-color:#a52ecb;stop-opacity:0.99215686"
         id="stop4288" /></linearGradient><linearGradient
       id="linearGradient4898"><stop
         id="stop4278"
         style="stop-color:#bab8db;stop-opacity:1"
         offset="0" /><stop
         id="stop4280"
         style="stop-color:#5955a9;stop-opacity:0.99159664"
         offset="1" /></linearGradient><linearGradient
       id="linearGradient3294"><stop
         offset="0"
         style="stop-color:#6376e6;stop-opacity:1"
         id="stop3296" /><stop
         offset="0.50094414"
         style="stop-color:#222989;stop-opacity:1"
         id="stop3302" /><stop
         offset="1"
         style="stop-color:#00003d;stop-opacity:1"
         id="stop3298" /></linearGradient><linearGradient
       id="linearGradient3284"><stop
         offset="0"
         style="stop-color:#000000;stop-opacity:1"
         id="stop3286" /><stop
         offset="0.84845906"
         style="stop-color:#000000;stop-opacity:0.49803922"
         id="stop3292" /><stop
         offset="1"
         style="stop-color:#000000;stop-opacity:0"
         id="stop3288" /></linearGradient><linearGradient
       id="linearGradient3274"><stop
         offset="0"
         style="stop-color:#000000;stop-opacity:1"
         id="stop3276" /><stop
         offset="1"
         style="stop-color:#000000;stop-opacity:0"
         id="stop3278" /></linearGradient><linearGradient
       id="linearGradient3242"><stop
         offset="0"
         style="stop-color:#282828;stop-opacity:1"
         id="stop3244" /><stop
         offset="0.39253417"
         style="stop-color:#808080;stop-opacity:1"
         id="stop3252" /><stop
         offset="1"
         style="stop-color:#d9d9d9;stop-opacity:1"
         id="stop3246" /></linearGradient><linearGradient
       id="linearGradient3202"><stop
         offset="0"
         style="stop-color:#2b2b2b;stop-opacity:1"
         id="stop3204" /><stop
         offset="0.5"
         style="stop-color:#828383;stop-opacity:1"
         id="stop3250" /><stop
         offset="1"
         style="stop-color:#dadbdb;stop-opacity:1"
         id="stop3206" /></linearGradient><linearGradient
       id="linearGradient4966"><stop
         offset="0"
         style="stop-color:#b6b3d8;stop-opacity:1"
         id="stop4968" /><stop
         offset="1"
         style="stop-color:#b6b3d8;stop-opacity:0"
         id="stop4970" /></linearGradient><linearGradient
       id="linearGradient4876"><stop
         offset="0"
         style="stop-color:#d3d2e8;stop-opacity:1"
         id="stop4878" /><stop
         offset="1"
         style="stop-color:#5955a9;stop-opacity:0.99159664"
         id="stop4880" /></linearGradient><radialGradient
       gradientTransform="matrix(0.6817439,0,0,0.5905355,-3.8523706,-28.935273)"
       gradientUnits="userSpaceOnUse"
       xlink:href="#linearGradient4898"
       id="radialGradient4892"
       fy="-108.96888"
       fx="20.951529"
       r="266.76535"
       cy="-108.96888"
       cx="20.951529" /><radialGradient
       gradientTransform="matrix(1,0,0,0.1854103,0,383.88493)"
       gradientUnits="userSpaceOnUse"
       xlink:href="#linearGradient3274"
       id="radialGradient4944"
       fy="471.26172"
       fx="233.8876"
       r="170.49393"
       cy="471.26172"
       cx="233.8876" /><radialGradient
       gradientTransform="matrix(1,0,0,0.9121621,0,32.654948)"
       gradientUnits="userSpaceOnUse"
       xlink:href="#linearGradient4966"
       id="radialGradient4972"
       fy="371.76376"
       fx="299.70135"
       r="76.696358"
       cy="371.76376"
       cx="299.70135" /><radialGradient
       gradientTransform="matrix(0.414705,0.3300575,-0.5059004,0.6356454,346.95314,49.479585)"
       gradientUnits="userSpaceOnUse"
       xlink:href="#linearGradient3202"
       id="radialGradient3210"
       fy="390.45248"
       fx="289.44067"
       r="17.67668"
       cy="390.45248"
       cx="289.44067" /><radialGradient
       gradientTransform="matrix(0.414705,0.3300575,-0.5059004,0.6356454,448.41009,-65.398074)"
       gradientUnits="userSpaceOnUse"
       xlink:href="#linearGradient3202"
       id="radialGradient3238"
       fy="382.14804"
       fx="283.50717"
       r="17.67668"
       cy="382.14804"
       cx="283.50717" /><radialGradient
       gradientTransform="matrix(-0.06556501,-0.05972176,1.6871024,-1.8521705,171.90774,540.51473)"
       gradientUnits="userSpaceOnUse"
       xlink:href="#linearGradient3242"
       id="radialGradient3248"
       fy="181.18982"
       fx="418.45551"
       r="63.068935"
       cy="181.18982"
       cx="418.45551" /><radialGradient
       gradientTransform="matrix(0.4055116,-0.03344012,0.1034174,4.3988695,177.23251,-1191.6649)"
       gradientUnits="userSpaceOnUse"
       xlink:href="#linearGradient3274"
       id="radialGradient3268"
       fy="357.33591"
       fx="354.51709"
       r="33.712105"
       cy="357.33591"
       cx="354.51709" /><radialGradient
       gradientTransform="matrix(-0.1339874,-0.1146812,0.3079048,-0.3597394,444.23592,395.03849)"
       gradientUnits="userSpaceOnUse"
       xlink:href="#linearGradient3274"
       id="radialGradient3280"
       fy="223.55537"
       fx="510.58469"
       r="132.28336"
       cy="223.55537"
       cx="510.58469" /><radialGradient
       gradientTransform="matrix(-1.2497569,1.3798305,-0.09628946,-0.07297448,674.3826,-70.590682)"
       gradientUnits="userSpaceOnUse"
       xlink:href="#linearGradient3284"
       id="radialGradient3290"
       fy="-158.17821"
       fx="284.4671"
       r="110.2972"
       cy="-158.17821"
       cx="284.4671" /><radialGradient
       gradientTransform="matrix(-0.1008165,-0.08087232,1.0745309,-1.3395252,13.843287,784.79288)"
       gradientUnits="userSpaceOnUse"
       xlink:href="#linearGradient3294"
       id="radialGradient3300"
       fy="356.62274"
       fx="425.51019"
       r="143.34167"
       cy="356.62274"
       cx="425.51019" /><filter
       height="1.1062305"
       y="-0.053115234"
       width="1.1073157"
       x="-0.053657863"
       id="filter4350"
       style="color-interpolation-filters:sRGB"><feGaussianBlur
         id="feGaussianBlur4352"
         stdDeviation="8.7848425" /></filter><linearGradient
       y2="300.73987"
       x2="236.61363"
       y1="-161.8512"
       x1="-122.20192"
       spreadMethod="pad"
       gradientTransform="matrix(0.87385837,0,0,0.82818057,246.00762,250.28138)"
       gradientUnits="userSpaceOnUse"
       id="linearGradient4245"
       xlink:href="#linearGradient4284" /><linearGradient
       y2="66.018341"
       x2="173.94518"
       y1="396.6066"
       x1="447.80933"
       gradientTransform="matrix(0.98684959,0,0,0.98684959,3.0344187,2.5250397)"
       gradientUnits="userSpaceOnUse"
       id="linearGradient4247"
       xlink:href="#linearGradient4292" /><linearGradient
       inkscape:collect="always"
       xlink:href="#linearGradient15"
       id="linearGradient16"
       x1="7.6703105"
       y1="4.8578644"
       x2="106.87299"
       y2="112.49789"
       gradientUnits="userSpaceOnUse"
       gradientTransform="translate(-0.58355011,-0.48585122)" /><linearGradient
       inkscape:collect="always"
       xlink:href="#linearGradient20"
       id="linearGradient21"
       x1="109.50478"
       y1="114.18366"
       x2="45.86504"
       y2="40.804367"
       gradientUnits="userSpaceOnUse"
       gradientTransform="translate(-0.58355001,-0.48585132)" /><linearGradient
       inkscape:collect="always"
       xlink:href="#linearGradient23"
       id="linearGradient24"
       x1="21.245571"
       y1="62.074139"
       x2="45.494331"
       y2="99.540298"
       gradientUnits="userSpaceOnUse" /></defs><path
     d="m 63.430123,4.018055 c -0.51875,-0.02875 -1.004609,0.065939 -1.47461,0.3359375 L 9.7973089,31.244618 c -0.950809,0.55881 -1.257591,0.918975 -1.332031,1.851562 l -0.05859,-0.0293 -0.08008,61.248048 c -7.39e-4,0.570001 0.350079,1.049376 0.830079,1.359376 3.0399991,2.010003 8.5892181,4.649456 14.1992181,7.689466 13.040001,7.06 29.520704,15.63976 37.720704,19.00977 1.056271,0.43773 1.705844,0.6542 2.429688,0.70898 v 0.0703 c 0,0 0.900469,-0.009 1.730468,-0.43945 L 116.99655,96.023917 c 0.93001,-0.48 1.50976,-1.428986 1.50976,-2.458986 v -58.191407 -0.0098 c 5.5e-4,-0.869175 0.0798,-2.2262 -0.62109,-2.535156 -0.0488,-0.02152 -0.11209,-0.02854 -0.17383,-0.03711 -0.32287,-0.393669 -0.70003,-0.737463 -0.98437,-0.976563 -1.16999,-0.97 -2.34009,-1.831172 -4.33008,-2.951172 C 83.866909,12.733722 65.105904,4.42427 65.105904,4.42427 64.500904,4.1992701 63.948873,4.04677 63.430123,4.01802 Z"
     style="display:inline;opacity:1;mix-blend-mode:normal;fill:none;fill-opacity:1;stroke:url(#linearGradient21);stroke-width:6;stroke-linejoin:round;stroke-dasharray:none;paint-order:normal"
     id="path20"
     inkscape:label="outline"
     sodipodi:nodetypes="cccccccccccccscsscccccc" /><g
     id="g18"
     style="display:inline"
     inkscape:label="box"
     transform="translate(-0.58355001,-0.48585132)"><path
       d="M 62.54,4.84 10.38,31.73 C 9.24,32.4 9.0058789,32.728848 9.0158789,34.178848 L 64.09,64.9 118.07121,36.950202 117.09,35.85 c 0,0 1.95,-1.29 1.66,-1.89 -0.32,-0.68 -1,-1.29 -1.44,-1.66 -1.17,-0.97 -2.34,-1.83 -4.33,-2.95 C 84.45,13.22 65.69,4.91 65.69,4.91 64.48,4.46 63.48,4.3 62.54,4.84 Z"
       fill="#DEA66C"
       id="path2"
       style="fill:#7f6cde;fill-opacity:1"
       sodipodi:nodetypes="ccccccccccc" /><path
       d="m 9.74,96.16 c 3.04,2.01 8.59,4.65 14.2,7.69 13.04,7.06 29.52,15.64 37.72,19.01 1.11,0.46 1.77,0.68 2.54,0.72 0.57,0.03 1.51,-0.35 1.51,-0.35 4.243381,-10.93024 -0.14,-61.631978 -0.14,-61.631978 L 8.9894286,33.553339 8.91,94.8 c -7.392e-4,0.57 0.35,1.05 0.83,1.36 z"
       fill="#b38251"
       id="path3"
       sodipodi:nodetypes="cccccccsc"
       style="fill:#6151b3;fill-opacity:1" /><path
       d="M 117.58,96.51 65.82,123.2 c -0.83,0.43 -1.729605,0.43802 -1.729605,0.43802 L 64.09,60.91 116.51548,33.688444 c 0,0 1.41768,-0.608991 1.95293,-0.373049 0.70326,0.310006 0.62159,1.675825 0.62159,2.544605 v 58.19 c 0,1.03 -0.58,1.98 -1.51,2.46 z"
       fill="#966239"
       id="path4"
       style="fill:#483996;fill-opacity:1"
       sodipodi:nodetypes="cccccccsc" /></g><path
     d="m 63.430122,4.018055 c -0.51875,-0.02875 -1.004609,0.065939 -1.47461,0.3359375 L 9.7973089,31.244617 c -0.950809,0.55881 -1.257591,0.918975 -1.332031,1.851562 l -0.05859,-0.0293 -0.08008,61.248047 c -7.39e-4,0.57 0.350078,1.049375 0.830078,1.359375 3.0400001,2.01 8.5892191,4.649459 14.1992191,7.689459 13.04,7.06 29.520703,15.63976 37.720703,19.00977 1.056271,0.43773 1.705844,0.6542 2.429688,0.70898 v 0.0703 c 0,0 0.900469,-0.009 1.730468,-0.43945 L 116.99654,96.023914 c 0.93001,-0.48 1.50976,-1.428985 1.50976,-2.458985 v -58.191406 -0.0098 c 5.5e-4,-0.869175 0.0798,-2.2262 -0.62109,-2.535156 -0.0488,-0.02152 -0.11209,-0.02854 -0.17383,-0.03711 -0.32287,-0.393669 -0.70003,-0.737463 -0.98437,-0.976563 -1.16999,-0.97 -2.34009,-1.831172 -4.33008,-2.951172 C 83.866907,12.733722 65.105903,4.42427 65.105903,4.42427 64.500903,4.1992701 63.948872,4.04677 63.430122,4.01802 Z"
     style="display:inline;opacity:0.292908;mix-blend-mode:color-dodge;fill:url(#linearGradient16);stroke-width:1.52799;stroke-linejoin:round;paint-order:markers stroke fill"
     id="path19"
     inkscape:label="gradient"
     sodipodi:nodetypes="cccccccccccccscsscccccc" /><path
     d="m 21.607783,93.891285 c 0,0 2.276654,1.221024 5.255155,2.295401 1.217587,0.439189 5.902678,2.077644 9.481718,2.863831 0,0 4.438979,1.000043 6.858503,1.153333 2.558038,0.16205 3.968748,-0.0476 4.625705,-0.947672 -0.0217,-0.253949 0.220234,-1.013521 -0.950057,-2.048543 -2.964106,-2.621503 -6.396423,-3.884348 -13.024561,-6.932859 -7.125805,-3.378735 -9.412948,-5.658145 -10.611278,-7.206163 -1.140842,-1.532067 -0.471561,-4.124301 4.669379,-4.515846 2.635014,-0.273806 13.182395,1.499055 13.182395,1.499055 -3.535378,-3.316347 -9.981171,-9.163111 -11.281438,-10.376555 -1.133848,-1.05813 -2.937325,-2.682835 -3.30102,-3.930847 -0.416741,-1.221987 1.112076,-1.546779 1.963515,-1.48209 2.763933,0.202683 6.704778,1.169951 10.340216,2.493357 1.849507,0.673276 2.154177,0.662959 2.154177,0.662959 2.5902,0.53339 4.349433,-0.668274 3.706539,-3.861982 -0.565949,-3.214542 -3.867016,-6.162223 -7.016205,-6.689233 -2.927016,-0.489825 -9.854291,-0.859228 -9.854291,-0.859228 8.525262,3.039229 9.979853,3.726084 10.609367,4.928096 0.372732,0.711699 -0.210805,1.283037 -2.546644,0.819066 -2.516359,-0.499824 -7.649892,-1.895126 -7.649892,-1.895126 -4.811786,-1.490998 -8.133936,-2.715942 -9.187739,-0.800829 -0.686375,1.247356 0.604207,3.080992 1.165287,4.137319 2.403897,4.0032 6.007768,7.099852 8.3563,9.275662 0.890469,0.824983 3.538219,2.779862 3.538219,2.779862 -7.748634,-3.601219 -13.256583,-3.285695 -16.469394,-1.694047 -3.593221,2.120512 -2.188503,7.053367 4.990551,12.897393 4.358614,3.548077 6.555058,5.293783 13.379419,7.671926 4.113589,1.593402 4.764293,2.025373 4.796483,2.404174 0.04533,0.53352 -4.618131,-0.289323 -5.876421,-0.466778 C 29.741072,95.61777 21.647565,93.900023 21.607783,93.891285 Z"
     id="path4237"
     style="fill:url(#linearGradient24);fill-opacity:1;fill-rule:evenodd;stroke:#000000;stroke-width:0;stroke-linecap:butt;stroke-linejoin:miter;stroke-miterlimit:4;stroke-dasharray:none;stroke-opacity:1"
     sodipodi:nodetypes="cscscsccccsccsccscsscscsccscssc"
     inkscape:path-effect="#path-effect21"
     inkscape:original-d="m 28.639239,104.54878 c 0,0 2.70679,0.19148 6.188969,-0.11541 1.410193,-0.12429 6.764313,-0.65019 10.767245,-1.52806 0,0 4.88054,-1.0445 7.491578,-2.00671 2.732022,-1.00681 4.218703,-1.861311 4.887867,-3.072109 -0.02925,-0.248084 0.206029,-1.127833 -1.053867,-1.656275 C 53.699953,94.819184 49.964279,95.063557 42.5723,94.906832 34.374887,94.625174 31.647926,93.25305 30.195298,92.147942 28.802321,91.026855 29.502773,87.925274 35.471364,85.193251 38.47793,83.738412 50.263952,81.053626 50.263952,81.053626 46.294633,79.091632 38.893103,75.642511 37.371638,74.897702 c -1.334409,-0.65323 -3.469878,-1.636811 -3.932765,-2.826813 -0.52482,-1.142439 1.239447,-2.126554 2.224946,-2.408376 3.173919,-0.915502 7.654513,-1.484515 11.732382,-1.548397 2.049752,-0.03211 2.382455,-0.163992 2.382455,-0.163992 2.828271,-0.469154 4.690133,-2.404178 3.914407,-5.468688 -0.696401,-3.128062 -4.369293,-4.966079 -7.859605,-4.329777 -3.286829,0.59921 -11.208938,2.900369 -11.208938,2.900369 9.792308,-0.08475 11.43129,0.07868 12.163265,1.102103 0.432287,0.604401 -0.196418,1.433131 -2.807998,1.859657 -2.843176,0.464353 -8.753345,1.023558 -8.753345,1.023558 -5.669752,0.336715 -9.663513,0.359252 -10.86133,2.895305 -0.782557,1.656832 0.834499,3.121595 1.54326,4.038466 2.995083,3.330826 7.321269,5.127231 10.10598,6.450116 1.047753,0.49774 4.122015,1.437709 4.122015,1.437709 -9.034062,-0.49688 -15.550906,2.27716 -19.373629,5.471082 -4.32364,3.99915 -2.410992,8.766016 6.44694,11.701105 5.231848,1.733578 7.826518,2.548882 15.630612,1.846127 4.596693,-0.247762 5.32131,-0.100316 5.367138,0.27686 0.06451,0.531036 -5.105598,1.850144 -6.517093,2.257284 -3.590862,1.03578 -13.003981,3.12723 -13.051096,3.13738 z"
     transform="matrix(1.0809,0,0,1.0809,3.0028179,-4.8618199)"
     inkscape:label="E icon" /><g
     id="g17"
     inkscape:label="tape"
     transform="translate(-0.58355001,-0.48585132)"><path
       d="M 100.74,41.49 C 100.24,41.12 46.55,13.07 46.55,13.07 l -16.66,8.61 55.05,28.39 0.03,0.03 16.11,-8.25 c 0,0 -0.03,-0.08 -0.12,-0.18 -0.07,-0.06 -0.19,-0.15 -0.22,-0.18 z"
       fill="#ffe0b2"
       id="path14"
       sodipodi:nodetypes="cccccccc" /><path
       d="m 101,41.73 c -9.12,4.49 -16.06,8.34 -16.06,8.34 0.23,0.23 0.24,0.53 0.24,0.68 -0.03,1.16 -0.05,2.08 -0.08,3.23 -0.14,5.95 -0.42,17.86 -0.42,17.86 l 5.905274,-6.912447 4.601476,2.363058 3.456362,-4.289139 L 101.51,64.12 c 0,0 -0.19,-18.15 -0.26,-21.2 C 101.23,41.84 101,41.73 101,41.73 Z"
       fill="#bf9f85"
       id="path15"
       inkscape:label="path15"
       sodipodi:nodetypes="ccccccccccc" /></g><path
     style="font-size:10px;line-height:0;font-family:'Fira Sans';-inkscape-font-specification:'Fira Sans';opacity:0.590682;fill:#efedf8;fill-opacity:0.271671;stroke-width:2.175;stroke-linejoin:round"
     d="m 100.30851,90.589233 c 0.21794,-0.09812 0.40276,-0.140684 0.55552,-0.128806 0.15444,0.006 0.305,0.05717 0.45171,0.152703 l -0.27267,0.493342 c -0.11745,-0.07053 -0.23152,-0.107688 -0.34206,-0.111015 -0.11138,-0.0034 -0.24397,0.03068 -0.39826,0.102629 -0.17967,0.08379 -0.348263,0.225708 -0.505265,0.426357 -0.154854,0.19635 -0.28341,0.458323 -0.384963,0.785636 -0.101937,0.324228 -0.15467,0.699628 -0.157874,1.124189 -0.0048,0.638747 0.07511,1.057285 0.23826,1.25601 0.1646,0.194284 0.405415,0.19817 0.719262,0.01621 0.25192,-0.146046 0.46664,-0.334789 0.64577,-0.56614 l 0.0176,-1.303984 -0.60111,0.319487 -0.0499,-0.466248 1.10589,-0.570445 -0.0312,2.060605 c -0.3403,0.448489 -0.70385,0.789761 -1.09261,1.021219 -0.46032,0.274057 -0.828714,0.297534 -1.098985,0.06089 -0.272056,-0.243462 -0.407973,-0.756692 -0.403653,-1.539435 0.0028,-0.503347 0.07917,-0.972915 0.228454,-1.405243 0.152014,-0.435825 0.350977,-0.801729 0.595097,-1.096774 0.244345,-0.297051 0.505037,-0.50698 0.780927,-0.631191 z m 3.72392,2.267741 -0.49932,0.296081 -1.10028,-2.81917 c 0.0122,0.270929 0.0204,0.522972 0.0245,0.756374 0.007,0.227363 0.008,0.507262 0.001,0.839516 l -0.0363,1.882025 -0.39007,0.231298 0.0748,-4.190012 0.54752,-0.247866 1.09541,2.842889 c -0.006,-0.09416 -0.0119,-0.261085 -0.0192,-0.501188 -0.007,-0.240768 -0.008,-0.464708 -0.004,-0.671554 l 0.0521,-2.179318 0.35187,-0.159295 z m 2.41093,-2.550477 c -0.008,0.238854 -0.0464,0.467377 -0.11538,0.686473 -0.0669,0.215163 -0.16235,0.410258 -0.28701,0.585864 -0.1234,0.172324 -0.27112,0.310012 -0.44404,0.412968 -0.26611,0.15843 -0.47251,0.169883 -0.6165,0.03057 -0.14335,-0.146187 -0.21033,-0.414378 -0.19952,-0.803981 l 0.0724,-2.60861 0.3471,-0.157134 -0.0736,2.538438 c -0.008,0.290658 0.0281,0.483982 0.10922,0.579895 0.0805,0.0952 0.20554,0.09325 0.37401,-0.0044 0.16859,-0.09767 0.29466,-0.237926 0.37952,-0.420993 0.0845,-0.185609 0.13126,-0.419701 0.14051,-0.703443 l 0.0798,-2.44652 0.31632,-0.143202 z"
     id="text24"
     aria-label="GNU"
     inkscape:label="GNU text"
     inkscape:path-effect="#path-effect24"
     inkscape:original-d="m 101.42522,88.587031 q 0.65,0 1.12,0.19 0.48,0.18 0.95,0.57 l -0.56,0.58 q -0.37,-0.3 -0.71,-0.43 -0.34,-0.13 -0.8,-0.13 -0.53,0 -0.98,0.29 -0.44,0.28 -0.720004,0.91 -0.28,0.62 -0.28,1.58 0,1.45 0.47,2.12 0.480004,0.67 1.410004,0.67 0.76,0 1.31,-0.31 v -2.08 h -1.22 l -0.11,-0.77 h 2.27 v 3.33 q -1.07,0.61 -2.25,0.61 -1.360004,0 -2.130004,-0.91 -0.76,-0.91 -0.76,-2.66 0,-1.12 0.4,-1.92 0.41,-0.81 1.09,-1.22 0.690004,-0.42 1.500004,-0.42 z m 8.6,7.01 h -1.27 l -2.8,-5.85 q 0.06,0.69 0.09,1.28 0.04,0.58 0.04,1.41 v 3.16 h -0.89 v -6.89 h 1.24 l 2.83,5.86 q -0.03,-0.26 -0.08,-0.91 -0.05,-0.65 -0.05,-1.19 v -3.76 h 0.89 z m 6.72001,-2.21 q 0,0.69 -0.29,1.22 -0.28,0.52 -0.83,0.82 -0.54,0.29 -1.3,0.29 -1.15,0 -1.78,-0.63 -0.62,-0.64 -0.62,-1.7 v -4.68 h 0.95 v 4.61 q 0,0.8 0.36,1.2 0.36,0.4 1.09,0.4 0.74,0 1.1,-0.39 0.36,-0.4 0.36,-1.21 v -4.61 h 0.96 z"
     transform="matrix(1.5896918,0,0,1.1833751,-91.612193,7.4856422)" /></svg>
